# xmcd
#
# Track frame offsets:
#	150
#	10999
#	20147
#	38095
#	56830
#	76982
#	99693
#	123316
#	140751
#	163689
#	180883
#	198013
#	215949
#	234380
#	250678
#	269389
#	287685
#	294119
#
# Disc length: 4243
#
# Revision: 1
# Processed by: cddbd v1.5.1PL0 Copyright (c) Steve Scherf et al.
# Submitted via: CD-DA_X-Tractor v0.23
# Normalized: r0:TRMNUM
#
DISCID=00109112
DTITLE=N.O.R.E. - God's Favorite
DYEAR=2003
DGENRE=Rap and Hip Hop
TTITLE0=Hit Me Slime
TTITLE1=God's Favorite
TTITLE2=Nothin'
TTITLE3=Grimey
TTITLE4=Nahmeanuheard
TTITLE5=Mr. CEO
TTITLE6=Big D
TTITLE7=Live My Life
TTITLE8=Full Mode
TTITLE9=Love Ya Moms
TTITLE10=Head Bussa
TTITLE11=Wanna Be Like Him
TTITLE12=Black Clouds
TTITLE13=Banned From Another Club
TTITLE14=Now I Pray
TTITLE15=Consider This
TTITLE16=Nahmeanuheard Remix
TTITLE17=Holla Back Slime
EXTD=
EXTT0=
EXTT1=
EXTT2=
EXTT3=
EXTT4=
EXTT5=
EXTT6=
EXTT7=
EXTT8=
EXTT9=
EXTT10=
EXTT11=
EXTT12=
EXTT13=
EXTT14=
EXTT15=
EXTT16=
EXTT17=
PLAYORDER=
